{
 "cells": [
  {
   "cell_type": "markdown",
   "id": "f094b695",
   "metadata": {
    "pycharm": {
     "name": "#%% md\n"
    }
   },
   "source": [
    "# Simulation result analysis \n",
    "\n",
    "- All replicate results are saved separately, check if they share some commonality\n"
   ]
  },
  {
   "cell_type": "markdown",
   "id": "e9b0ab93",
   "metadata": {
    "pycharm": {
     "name": "#%% md\n"
    }
   },
   "source": [
    "## Section I, trajectory analysis"
   ]
  },
  {
   "cell_type": "code",
   "execution_count": 1,
   "id": "e51ebf90",
   "metadata": {
    "pycharm": {
     "name": "#%%\n"
    }
   },
   "outputs": [
    {
     "name": "stdout",
     "output_type": "stream",
     "text": [
      "['R_000', 'R_038', 'R_007', 'R_031', '.DS_Store', 'R_009', 'R_036', 'R_062', 'R_096', 'R_091', 'R_065', 'R_053', 'R_098', 'R_054', 'R_008', 'R_037', 'R_030', 'R_039', 'R_006', 'R_001', 'R_055', 'R_052', 'R_099', 'R_064', 'R_090', 'R_097', 'R_063', 'R_041', 'R_079', 'R_046', 'R_070', 'R_084', 'R_048', 'R_083', 'R_077', 'R_023', 'R_024', 'R_012', 'R_015', 'R_049', 'R_076', 'R_082', 'R_085', 'R_071', 'R_078', 'R_047', 'R_040', 'R_014', 'R_013', 'R_025', 'R_022', 'P_reserved', 'README.md', 'R_092', 'R_066', 'R_059', 'R_061', 'R_095', 'R_057', 'R_068', 'R_050', 'R_004', 'R_003', 'R_035', 'R_032', 'R_051', 'R_056', 'R_069', 'R_094', 'R_060', 'R_067', 'R_093', 'R_058', 'R_033', 'R_034', 'R_002', 'R_005', 'R_027', 'R_018', 'R_020', 'R_016', 'R_029', 'R_011', 'R_045', 'R_089', 'R_042', 'R_080', 'R_074', 'R_073', 'R_087', 'R_010', 'R_017', 'R_028', 'R_021', 'R_026', 'R_019', 'R_086', 'R_072', 'R_075', 'R_081', 'R_088', 'R_043', 'R_044']\n",
      "['.DS_Store', 'sigma_15', 'sigma_01', 'Myopic', 'sigma_10', 'RRT', 'sigma_05']\n",
      "total 8\n",
      "drwxr-xr-x  102 yaolin  staff   3.2K Jan 13 10:52 P_reserved\n",
      "-rw-r--r--@   1 yaolin  staff   207B Jan  4 19:52 README.md\n",
      "drwxr-xr-x    6 yaolin  staff   192B Jan 13 10:53 R_000\n",
      "drwxr-xr-x    6 yaolin  staff   192B Jan 13 10:53 R_001\n",
      "drwxr-xr-x    6 yaolin  staff   192B Jan 13 10:53 R_002\n",
      "drwxr-xr-x    6 yaolin  staff   192B Jan 13 10:53 R_003\n",
      "drwxr-xr-x    6 yaolin  staff   192B Jan 13 10:53 R_004\n",
      "drwxr-xr-x    6 yaolin  staff   192B Jan 13 10:53 R_005\n",
      "drwxr-xr-x    6 yaolin  staff   192B Jan 13 10:53 R_006\n",
      "drwxr-xr-x    6 yaolin  staff   192B Jan 13 10:53 R_007\n",
      "drwxr-xr-x    6 yaolin  staff   192B Jan 13 10:53 R_008\n",
      "drwxr-xr-x    6 yaolin  staff   192B Jan 13 10:53 R_009\n",
      "drwxr-xr-x    6 yaolin  staff   192B Jan 13 10:53 R_010\n",
      "drwxr-xr-x    6 yaolin  staff   192B Jan 13 10:53 R_011\n",
      "drwxr-xr-x    6 yaolin  staff   192B Jan 13 10:53 R_012\n",
      "drwxr-xr-x    6 yaolin  staff   192B Jan 13 10:53 R_013\n",
      "drwxr-xr-x    6 yaolin  staff   192B Jan 13 10:53 R_014\n",
      "drwxr-xr-x    6 yaolin  staff   192B Jan 13 10:53 R_015\n",
      "drwxr-xr-x    6 yaolin  staff   192B Jan 13 10:53 R_016\n",
      "drwxr-xr-x    6 yaolin  staff   192B Jan 13 10:53 R_017\n",
      "drwxr-xr-x    6 yaolin  staff   192B Jan 13 10:53 R_018\n",
      "drwxr-xr-x    6 yaolin  staff   192B Jan 13 10:53 R_019\n",
      "drwxr-xr-x    6 yaolin  staff   192B Jan 13 10:53 R_020\n",
      "drwxr-xr-x    6 yaolin  staff   192B Jan 13 10:53 R_021\n",
      "drwxr-xr-x    6 yaolin  staff   192B Jan 13 10:53 R_022\n",
      "drwxr-xr-x    6 yaolin  staff   192B Jan 13 10:53 R_023\n",
      "drwxr-xr-x    6 yaolin  staff   192B Jan 13 10:53 R_024\n",
      "drwxr-xr-x    6 yaolin  staff   192B Jan 13 10:53 R_025\n",
      "drwxr-xr-x    6 yaolin  staff   192B Jan 13 10:53 R_026\n",
      "drwxr-xr-x    6 yaolin  staff   192B Jan 13 10:53 R_027\n",
      "drwxr-xr-x    6 yaolin  staff   192B Jan 13 10:53 R_028\n",
      "drwxr-xr-x    6 yaolin  staff   192B Jan 13 10:53 R_029\n",
      "drwxr-xr-x    6 yaolin  staff   192B Jan 13 10:53 R_030\n",
      "drwxr-xr-x    6 yaolin  staff   192B Jan 13 10:53 R_031\n",
      "drwxr-xr-x    6 yaolin  staff   192B Jan 13 10:53 R_032\n",
      "drwxr-xr-x    6 yaolin  staff   192B Jan 13 10:53 R_033\n",
      "drwxr-xr-x    6 yaolin  staff   192B Jan 13 10:53 R_034\n",
      "drwxr-xr-x    6 yaolin  staff   192B Jan 13 10:53 R_035\n",
      "drwxr-xr-x    6 yaolin  staff   192B Jan 13 10:53 R_036\n",
      "drwxr-xr-x    6 yaolin  staff   192B Jan 13 10:53 R_037\n",
      "drwxr-xr-x    6 yaolin  staff   192B Jan 13 10:53 R_038\n",
      "drwxr-xr-x    6 yaolin  staff   192B Jan 13 10:53 R_039\n",
      "drwxr-xr-x    6 yaolin  staff   192B Jan 13 10:53 R_040\n",
      "drwxr-xr-x    6 yaolin  staff   192B Jan 13 10:53 R_041\n",
      "drwxr-xr-x    6 yaolin  staff   192B Jan 13 10:53 R_042\n",
      "drwxr-xr-x    6 yaolin  staff   192B Jan 13 10:53 R_043\n",
      "drwxr-xr-x    6 yaolin  staff   192B Jan 13 10:53 R_044\n",
      "drwxr-xr-x    6 yaolin  staff   192B Jan 13 10:53 R_045\n",
      "drwxr-xr-x    6 yaolin  staff   192B Jan 13 10:53 R_046\n",
      "drwxr-xr-x    6 yaolin  staff   192B Jan 13 10:53 R_047\n",
      "drwxr-xr-x    6 yaolin  staff   192B Jan 13 10:53 R_048\n",
      "drwxr-xr-x    6 yaolin  staff   192B Jan 13 10:53 R_049\n",
      "drwxr-xr-x    6 yaolin  staff   192B Jan 13 10:53 R_050\n",
      "drwxr-xr-x    6 yaolin  staff   192B Jan 13 10:53 R_051\n",
      "drwxr-xr-x    6 yaolin  staff   192B Jan 13 10:53 R_052\n",
      "drwxr-xr-x    6 yaolin  staff   192B Jan 13 10:53 R_053\n",
      "drwxr-xr-x    6 yaolin  staff   192B Jan 13 10:53 R_054\n",
      "drwxr-xr-x    6 yaolin  staff   192B Jan 13 10:53 R_055\n",
      "drwxr-xr-x    6 yaolin  staff   192B Jan 13 10:53 R_056\n",
      "drwxr-xr-x    6 yaolin  staff   192B Jan 13 10:53 R_057\n",
      "drwxr-xr-x    6 yaolin  staff   192B Jan 13 10:53 R_058\n",
      "drwxr-xr-x    6 yaolin  staff   192B Jan 13 10:53 R_059\n",
      "drwxr-xr-x    6 yaolin  staff   192B Jan 13 10:53 R_060\n",
      "drwxr-xr-x    6 yaolin  staff   192B Jan 13 10:53 R_061\n",
      "drwxr-xr-x    6 yaolin  staff   192B Jan 13 10:53 R_062\n",
      "drwxr-xr-x    6 yaolin  staff   192B Jan 13 10:53 R_063\n",
      "drwxr-xr-x    6 yaolin  staff   192B Jan 13 10:53 R_064\n",
      "drwxr-xr-x    6 yaolin  staff   192B Jan 13 10:53 R_065\n",
      "drwxr-xr-x    6 yaolin  staff   192B Jan 13 10:53 R_066\n",
      "drwxr-xr-x    6 yaolin  staff   192B Jan 13 10:53 R_067\n",
      "drwxr-xr-x    6 yaolin  staff   192B Jan 13 10:53 R_068\n",
      "drwxr-xr-x    6 yaolin  staff   192B Jan 13 10:53 R_069\n",
      "drwxr-xr-x    6 yaolin  staff   192B Jan 13 10:53 R_070\n",
      "drwxr-xr-x    6 yaolin  staff   192B Jan 13 10:53 R_071\n",
      "drwxr-xr-x    6 yaolin  staff   192B Jan 13 10:53 R_072\n",
      "drwxr-xr-x    6 yaolin  staff   192B Jan 13 10:53 R_073\n",
      "drwxr-xr-x    6 yaolin  staff   192B Jan 13 10:53 R_074\n",
      "drwxr-xr-x    6 yaolin  staff   192B Jan 13 10:53 R_075\n",
      "drwxr-xr-x    6 yaolin  staff   192B Jan 13 10:53 R_076\n",
      "drwxr-xr-x    6 yaolin  staff   192B Jan 13 10:53 R_077\n",
      "drwxr-xr-x    6 yaolin  staff   192B Jan 13 10:53 R_078\n",
      "drwxr-xr-x    6 yaolin  staff   192B Jan 13 10:53 R_079\n",
      "drwxr-xr-x    6 yaolin  staff   192B Jan 13 10:53 R_080\n",
      "drwxr-xr-x    6 yaolin  staff   192B Jan 13 10:53 R_081\n",
      "drwxr-xr-x    6 yaolin  staff   192B Jan 13 10:53 R_082\n",
      "drwxr-xr-x    6 yaolin  staff   192B Jan 13 10:53 R_083\n",
      "drwxr-xr-x    6 yaolin  staff   192B Jan 13 10:53 R_084\n",
      "drwxr-xr-x    6 yaolin  staff   192B Jan 13 10:53 R_085\n",
      "drwxr-xr-x    6 yaolin  staff   192B Jan 13 10:53 R_086\n",
      "drwxr-xr-x    6 yaolin  staff   192B Jan 13 10:53 R_087\n",
      "drwxr-xr-x    6 yaolin  staff   192B Jan 13 10:53 R_088\n",
      "drwxr-xr-x    6 yaolin  staff   192B Jan 13 10:53 R_089\n",
      "drwxr-xr-x    6 yaolin  staff   192B Jan 13 10:53 R_090\n",
      "drwxr-xr-x    6 yaolin  staff   192B Jan 13 10:53 R_091\n",
      "drwxr-xr-x    6 yaolin  staff   192B Jan 13 10:53 R_092\n",
      "drwxr-xr-x    6 yaolin  staff   192B Jan 13 10:53 R_093\n",
      "drwxr-xr-x    6 yaolin  staff   192B Jan 13 10:53 R_094\n",
      "drwxr-xr-x    6 yaolin  staff   192B Jan 13 10:53 R_095\n",
      "drwxr-xr-x    6 yaolin  staff   192B Jan 13 10:53 R_096\n",
      "drwxr-xr-x    6 yaolin  staff   192B Jan 13 10:53 R_097\n",
      "drwxr-xr-x    6 yaolin  staff   192B Jan 13 10:53 R_098\n",
      "drwxr-xr-x    6 yaolin  staff   192B Jan 13 10:53 R_099\n"
     ]
    },
    {
     "data": {
      "text/plain": [
       "0"
      ]
     },
     "execution_count": 1,
     "metadata": {},
     "output_type": "execute_result"
    }
   ],
   "source": [
    "from Config import Config\n",
    "from usr_func.checkfolder import checkfolder\n",
    "import numpy as np\n",
    "import matplotlib.pyplot as plt\n",
    "import os \n",
    "from tqdm import tqdm\n",
    "from matplotlib.gridspec import GridSpec\n",
    "from joblib import Parallel, delayed\n",
    "\n",
    "plt.rcParams[\"font.family\"] = \"Times New Roman\"\n",
    "plt.rcParams[\"font.size\"] = 20\n",
    "\n",
    "filepath = \"./npy/\"\n",
    "print(os.listdir(filepath))\n",
    "\n",
    "figpath = os.getcwd() + \"/../../../../OneDrive - NTNU/MASCOT_PhD/Projects/GOOGLE/Docs/fig/Sim_2DNidelva/Simulator/\"\n",
    "print(os.listdir(figpath))\n",
    "\n",
    "c = Config()\n",
    "plg_b = c.get_polygon_border()\n",
    "plg_o = c.get_polygon_obstacle()\n",
    "num_steps = c.get_num_steps()\n",
    "num_replicates = c.get_num_replicates()\n",
    "\n",
    "os.system(\"ls -lh \" + filepath)"
   ]
  },
  {
   "cell_type": "code",
   "execution_count": 2,
   "id": "d859abb6",
   "metadata": {},
   "outputs": [
    {
     "name": "stdout",
     "output_type": "stream",
     "text": [
      "Number of replicates:  100\n"
     ]
    },
    {
     "ename": "NameError",
     "evalue": "name 'Simulators' is not defined",
     "output_type": "error",
     "traceback": [
      "\u001b[0;31m---------------------------------------------------------------------------\u001b[0m",
      "\u001b[0;31mEmpty\u001b[0m                                     Traceback (most recent call last)",
      "File \u001b[0;32m~/opt/anaconda3/envs/OASIS/lib/python3.9/site-packages/joblib/parallel.py:822\u001b[0m, in \u001b[0;36mParallel.dispatch_one_batch\u001b[0;34m(self, iterator)\u001b[0m\n\u001b[1;32m    821\u001b[0m \u001b[38;5;28;01mtry\u001b[39;00m:\n\u001b[0;32m--> 822\u001b[0m     tasks \u001b[38;5;241m=\u001b[39m \u001b[38;5;28;43mself\u001b[39;49m\u001b[38;5;241;43m.\u001b[39;49m\u001b[43m_ready_batches\u001b[49m\u001b[38;5;241;43m.\u001b[39;49m\u001b[43mget\u001b[49m\u001b[43m(\u001b[49m\u001b[43mblock\u001b[49m\u001b[38;5;241;43m=\u001b[39;49m\u001b[38;5;28;43;01mFalse\u001b[39;49;00m\u001b[43m)\u001b[49m\n\u001b[1;32m    823\u001b[0m \u001b[38;5;28;01mexcept\u001b[39;00m queue\u001b[38;5;241m.\u001b[39mEmpty:\n\u001b[1;32m    824\u001b[0m     \u001b[38;5;66;03m# slice the iterator n_jobs * batchsize items at a time. If the\u001b[39;00m\n\u001b[1;32m    825\u001b[0m     \u001b[38;5;66;03m# slice returns less than that, then the current batchsize puts\u001b[39;00m\n\u001b[0;32m   (...)\u001b[0m\n\u001b[1;32m    828\u001b[0m     \u001b[38;5;66;03m# accordingly to distribute evenly the last items between all\u001b[39;00m\n\u001b[1;32m    829\u001b[0m     \u001b[38;5;66;03m# workers.\u001b[39;00m\n",
      "File \u001b[0;32m~/opt/anaconda3/envs/OASIS/lib/python3.9/queue.py:168\u001b[0m, in \u001b[0;36mQueue.get\u001b[0;34m(self, block, timeout)\u001b[0m\n\u001b[1;32m    167\u001b[0m     \u001b[38;5;28;01mif\u001b[39;00m \u001b[38;5;129;01mnot\u001b[39;00m \u001b[38;5;28mself\u001b[39m\u001b[38;5;241m.\u001b[39m_qsize():\n\u001b[0;32m--> 168\u001b[0m         \u001b[38;5;28;01mraise\u001b[39;00m Empty\n\u001b[1;32m    169\u001b[0m \u001b[38;5;28;01melif\u001b[39;00m timeout \u001b[38;5;129;01mis\u001b[39;00m \u001b[38;5;28;01mNone\u001b[39;00m:\n",
      "\u001b[0;31mEmpty\u001b[0m: ",
      "\nDuring handling of the above exception, another exception occurred:\n",
      "\u001b[0;31mNameError\u001b[0m                                 Traceback (most recent call last)",
      "Cell \u001b[0;32mIn [2], line 91\u001b[0m\n\u001b[1;32m     88\u001b[0m     \u001b[38;5;28;01mfor\u001b[39;00m i \u001b[38;5;129;01min\u001b[39;00m tqdm(\u001b[38;5;28mrange\u001b[39m(traj\u001b[38;5;241m.\u001b[39mshape[\u001b[38;5;241m2\u001b[39m])):\n\u001b[1;32m     89\u001b[0m         plotf(i, \u001b[38;5;124m\"\u001b[39m\u001b[38;5;124msigma: \u001b[39m\u001b[38;5;132;01m{:.1f}\u001b[39;00m\u001b[38;5;124m, nugget: \u001b[39m\u001b[38;5;132;01m{:.2f}\u001b[39;00m\u001b[38;5;124m, simulator: \u001b[39m\u001b[38;5;132;01m{:s}\u001b[39;00m\u001b[38;5;124m\"\u001b[39m\u001b[38;5;241m.\u001b[39mformat(sigma, nugget, simulator), filename\u001b[38;5;241m=\u001b[39msavefig \u001b[38;5;241m+\u001b[39m \u001b[38;5;124m\"\u001b[39m\u001b[38;5;124mP_\u001b[39m\u001b[38;5;132;01m{:03d}\u001b[39;00m\u001b[38;5;124m.png\u001b[39m\u001b[38;5;124m\"\u001b[39m\u001b[38;5;241m.\u001b[39mformat(i))\n\u001b[0;32m---> 91\u001b[0m \u001b[43mParallel\u001b[49m\u001b[43m(\u001b[49m\u001b[43mn_jobs\u001b[49m\u001b[38;5;241;43m=\u001b[39;49m\u001b[38;5;241;43m10\u001b[39;49m\u001b[43m)\u001b[49m\u001b[43m(\u001b[49m\u001b[43mdelayed\u001b[49m\u001b[43m(\u001b[49m\u001b[43mmake_plots_total\u001b[49m\u001b[43m)\u001b[49m\u001b[43m(\u001b[49m\u001b[43msigma\u001b[49m\u001b[38;5;241;43m=\u001b[39;49m\u001b[43msigma\u001b[49m\u001b[43m,\u001b[49m\u001b[43m \u001b[49m\u001b[43mnugget\u001b[49m\u001b[38;5;241;43m=\u001b[39;49m\u001b[43mnugget\u001b[49m\u001b[43m,\u001b[49m\u001b[43m \u001b[49m\u001b[43msimulator\u001b[49m\u001b[38;5;241;43m=\u001b[39;49m\u001b[43msimulator\u001b[49m\u001b[43m)\u001b[49m\u001b[43m \u001b[49m\u001b[38;5;28;43;01mfor\u001b[39;49;00m\u001b[43m \u001b[49m\u001b[43msigma\u001b[49m\u001b[43m \u001b[49m\u001b[38;5;129;43;01min\u001b[39;49;00m\u001b[43m \u001b[49m\u001b[43msigmas\u001b[49m\u001b[43m \u001b[49m\u001b[38;5;28;43;01mfor\u001b[39;49;00m\u001b[43m \u001b[49m\u001b[43mnugget\u001b[49m\u001b[43m \u001b[49m\u001b[38;5;129;43;01min\u001b[39;49;00m\u001b[43m \u001b[49m\u001b[43mnuggets\u001b[49m\u001b[43m \u001b[49m\u001b[38;5;28;43;01mfor\u001b[39;49;00m\u001b[43m \u001b[49m\u001b[43msimulator\u001b[49m\u001b[43m \u001b[49m\u001b[38;5;129;43;01min\u001b[39;49;00m\u001b[43m \u001b[49m\u001b[43mSimulators\u001b[49m\u001b[43m)\u001b[49m\n",
      "File \u001b[0;32m~/opt/anaconda3/envs/OASIS/lib/python3.9/site-packages/joblib/parallel.py:1043\u001b[0m, in \u001b[0;36mParallel.__call__\u001b[0;34m(self, iterable)\u001b[0m\n\u001b[1;32m   1034\u001b[0m \u001b[38;5;28;01mtry\u001b[39;00m:\n\u001b[1;32m   1035\u001b[0m     \u001b[38;5;66;03m# Only set self._iterating to True if at least a batch\u001b[39;00m\n\u001b[1;32m   1036\u001b[0m     \u001b[38;5;66;03m# was dispatched. In particular this covers the edge\u001b[39;00m\n\u001b[0;32m   (...)\u001b[0m\n\u001b[1;32m   1040\u001b[0m     \u001b[38;5;66;03m# was very quick and its callback already dispatched all the\u001b[39;00m\n\u001b[1;32m   1041\u001b[0m     \u001b[38;5;66;03m# remaining jobs.\u001b[39;00m\n\u001b[1;32m   1042\u001b[0m     \u001b[38;5;28mself\u001b[39m\u001b[38;5;241m.\u001b[39m_iterating \u001b[38;5;241m=\u001b[39m \u001b[38;5;28;01mFalse\u001b[39;00m\n\u001b[0;32m-> 1043\u001b[0m     \u001b[38;5;28;01mif\u001b[39;00m \u001b[38;5;28;43mself\u001b[39;49m\u001b[38;5;241;43m.\u001b[39;49m\u001b[43mdispatch_one_batch\u001b[49m\u001b[43m(\u001b[49m\u001b[43miterator\u001b[49m\u001b[43m)\u001b[49m:\n\u001b[1;32m   1044\u001b[0m         \u001b[38;5;28mself\u001b[39m\u001b[38;5;241m.\u001b[39m_iterating \u001b[38;5;241m=\u001b[39m \u001b[38;5;28mself\u001b[39m\u001b[38;5;241m.\u001b[39m_original_iterator \u001b[38;5;129;01mis\u001b[39;00m \u001b[38;5;129;01mnot\u001b[39;00m \u001b[38;5;28;01mNone\u001b[39;00m\n\u001b[1;32m   1046\u001b[0m     \u001b[38;5;28;01mwhile\u001b[39;00m \u001b[38;5;28mself\u001b[39m\u001b[38;5;241m.\u001b[39mdispatch_one_batch(iterator):\n",
      "File \u001b[0;32m~/opt/anaconda3/envs/OASIS/lib/python3.9/site-packages/joblib/parallel.py:833\u001b[0m, in \u001b[0;36mParallel.dispatch_one_batch\u001b[0;34m(self, iterator)\u001b[0m\n\u001b[1;32m    830\u001b[0m n_jobs \u001b[38;5;241m=\u001b[39m \u001b[38;5;28mself\u001b[39m\u001b[38;5;241m.\u001b[39m_cached_effective_n_jobs\n\u001b[1;32m    831\u001b[0m big_batch_size \u001b[38;5;241m=\u001b[39m batch_size \u001b[38;5;241m*\u001b[39m n_jobs\n\u001b[0;32m--> 833\u001b[0m islice \u001b[38;5;241m=\u001b[39m \u001b[38;5;28;43mlist\u001b[39;49m\u001b[43m(\u001b[49m\u001b[43mitertools\u001b[49m\u001b[38;5;241;43m.\u001b[39;49m\u001b[43mislice\u001b[49m\u001b[43m(\u001b[49m\u001b[43miterator\u001b[49m\u001b[43m,\u001b[49m\u001b[43m \u001b[49m\u001b[43mbig_batch_size\u001b[49m\u001b[43m)\u001b[49m\u001b[43m)\u001b[49m\n\u001b[1;32m    834\u001b[0m \u001b[38;5;28;01mif\u001b[39;00m \u001b[38;5;28mlen\u001b[39m(islice) \u001b[38;5;241m==\u001b[39m \u001b[38;5;241m0\u001b[39m:\n\u001b[1;32m    835\u001b[0m     \u001b[38;5;28;01mreturn\u001b[39;00m \u001b[38;5;28;01mFalse\u001b[39;00m\n",
      "Cell \u001b[0;32mIn [2], line 91\u001b[0m, in \u001b[0;36m<genexpr>\u001b[0;34m(.0)\u001b[0m\n\u001b[1;32m     88\u001b[0m     \u001b[38;5;28;01mfor\u001b[39;00m i \u001b[38;5;129;01min\u001b[39;00m tqdm(\u001b[38;5;28mrange\u001b[39m(traj\u001b[38;5;241m.\u001b[39mshape[\u001b[38;5;241m2\u001b[39m])):\n\u001b[1;32m     89\u001b[0m         plotf(i, \u001b[38;5;124m\"\u001b[39m\u001b[38;5;124msigma: \u001b[39m\u001b[38;5;132;01m{:.1f}\u001b[39;00m\u001b[38;5;124m, nugget: \u001b[39m\u001b[38;5;132;01m{:.2f}\u001b[39;00m\u001b[38;5;124m, simulator: \u001b[39m\u001b[38;5;132;01m{:s}\u001b[39;00m\u001b[38;5;124m\"\u001b[39m\u001b[38;5;241m.\u001b[39mformat(sigma, nugget, simulator), filename\u001b[38;5;241m=\u001b[39msavefig \u001b[38;5;241m+\u001b[39m \u001b[38;5;124m\"\u001b[39m\u001b[38;5;124mP_\u001b[39m\u001b[38;5;132;01m{:03d}\u001b[39;00m\u001b[38;5;124m.png\u001b[39m\u001b[38;5;124m\"\u001b[39m\u001b[38;5;241m.\u001b[39mformat(i))\n\u001b[0;32m---> 91\u001b[0m Parallel(n_jobs\u001b[38;5;241m=\u001b[39m\u001b[38;5;241m10\u001b[39m)(delayed(make_plots_total)(sigma\u001b[38;5;241m=\u001b[39msigma, nugget\u001b[38;5;241m=\u001b[39mnugget, simulator\u001b[38;5;241m=\u001b[39msimulator) \u001b[38;5;28;01mfor\u001b[39;00m sigma \u001b[38;5;129;01min\u001b[39;00m sigmas \u001b[38;5;28;01mfor\u001b[39;00m nugget \u001b[38;5;129;01min\u001b[39;00m nuggets \u001b[38;5;28;01mfor\u001b[39;00m simulator \u001b[38;5;129;01min\u001b[39;00m \u001b[43mSimulators\u001b[49m)\n",
      "\u001b[0;31mNameError\u001b[0m: name 'Simulators' is not defined"
     ]
    }
   ],
   "source": [
    "# Simulators = [\"SimulatorRRTStar\", \"SimulatorMyopic2D\"]\n",
    "sigmas = [1.5, 1., .5, .1]\n",
    "nuggets = [.4, .25, .1, .01]\n",
    "\n",
    "replicates = os.listdir(filepath)\n",
    "Nrep = 0\n",
    "for rep in replicates: \n",
    "    if rep.startswith(\"R_\"):\n",
    "        Nrep += 1\n",
    "print(\"Number of replicates: \", Nrep)\n",
    "\n",
    "\n",
    "def make_plots_total(sigma, nugget):\n",
    "    \n",
    "    def plotf(i, title, filename):\n",
    "        fig = plt.figure(figsize=(40, 24))\n",
    "        gs = GridSpec(nrows=2, ncols=3)\n",
    "\n",
    "        def plot_subplot(data, title):\n",
    "            for j in range(data.shape[0]):\n",
    "                plt.plot(data[j, :i, 1], data[j, :i, 0], 'k.-', alpha=.4)\n",
    "                ax.plot(plg_b[:, 1], plg_b[:, 0], 'r-.')\n",
    "                ax.plot(plg_o[:, 1], plg_o[:, 0], 'r-.')\n",
    "                ax.set_xlabel(\"East\")\n",
    "                ax.set_ylabel(\"North\")\n",
    "                ax.set_title(title)\n",
    "                ax.set_aspect(\"equal\")\n",
    "\n",
    "        def plotf_sim(data, steps, ylabel=\"IBV\"):\n",
    "            N = data.shape[0]\n",
    "\n",
    "            hx = np.arange(steps)\n",
    "            ax.errorbar(hx, y=np.mean(data[:, 0, :steps], axis=0), yerr=np.std(data[:, 0, :steps], axis=0)/np.sqrt(N) * 1.645, fmt=\"-o\", capsize=5,\n",
    "                                 label=\"EIBV dominant\")\n",
    "            ax.errorbar(hx, y=np.mean(data[:, 1, :steps], axis=0), yerr=np.std(data[:, 1, :steps], axis=0)/np.sqrt(N) * 1.645, fmt=\"-o\", capsize=5,\n",
    "                                 label=\"IVR dominant\")\n",
    "            ax.errorbar(hx, y=np.mean(data[:, 2, :steps], axis=0), yerr=np.std(data[:, 2, :steps], axis=0)/np.sqrt(N) * 1.645, fmt=\"-o\", capsize=5,\n",
    "                                 label=\"Equal weights\")\n",
    "            plt.legend(loc=\"lower left\")\n",
    "            plt.xlabel('Time steps')\n",
    "            plt.ylabel(ylabel)\n",
    "\n",
    "        ax = fig.add_subplot(gs[0])\n",
    "        plot_subplot(traj[:, 0, :, :], \"EIBV dominant\")\n",
    "\n",
    "        ax = fig.add_subplot(gs[1])\n",
    "        plot_subplot(traj[:, 1, :, :], \"IVR dominant\")\n",
    "\n",
    "        ax = fig.add_subplot(gs[2])\n",
    "        plot_subplot(traj[:, 2, :, :], \"Equal weights\")\n",
    "\n",
    "        ax = fig.add_subplot(gs[3])\n",
    "        plotf_sim(ibv, i, \"IBV\")\n",
    "\n",
    "        ax = fig.add_subplot(gs[4])\n",
    "        plotf_sim(vr, i, \"VR\")\n",
    "\n",
    "        ax = fig.add_subplot(gs[5])\n",
    "        plotf_sim(rmse, i, \"RMSE\")\n",
    "\n",
    "        plt.suptitle(title)\n",
    "\n",
    "        plt.savefig(filename)\n",
    "        plt.close(\"all\")\n",
    "\n",
    "    string = \"/sigma_{:02d}/\".format(int(10*sigma)) + \"nugget_{:03d}/\".format(int(100*nugget)) + simulator + \"/\"\n",
    "    traj = np.empty([0, 3, num_steps, 2])\n",
    "    ibv = np.empty([0, 3, num_steps])\n",
    "    rmse = np.empty([0, 3, num_steps])\n",
    "    vr = np.empty([0, 3, num_steps])\n",
    "\n",
    "    for i in range(Nrep):\n",
    "        rep = \"R_{:03d}\".format(i)\n",
    "        datapath = filepath + rep + string\n",
    "        r_traj = np.load(datapath + \"traj.npy\").reshape(1, 3, num_steps, 2)\n",
    "        r_ibv = np.load(datapath + \"ibv.npy\").reshape(1, 3, num_steps)\n",
    "        r_vr = np.load(datapath + \"vr.npy\").reshape(1, 3, num_steps)\n",
    "        r_rmse = np.load(datapath + \"rmse.npy\").reshape(1, 3, num_steps)\n",
    "\n",
    "        traj = np.append(traj, r_traj, axis=0)\n",
    "        ibv = np.append(ibv, r_ibv, axis=0)\n",
    "        vr = np.append(vr, r_vr, axis=0)\n",
    "        rmse = np.append(rmse, r_rmse, axis=0)\n",
    "\n",
    "    savefig = figpath[:-1] + string\n",
    "    checkfolder(savefig)\n",
    "\n",
    "    for i in tqdm(range(traj.shape[2])):\n",
    "        plotf(i, \"sigma: {:.1f}, nugget: {:.2f}, simulator: {:s}\".format(sigma, nugget, simulator), filename=savefig + \"P_{:03d}.png\".format(i))\n",
    "\n",
    "Parallel(n_jobs=10)(delayed(make_plots_total)(sigma=sigma, nugget=nugget, simulator=simulator) for sigma in sigmas for nugget in nuggets for simulator in Simulators)\n"
   ]
  },
  {
   "cell_type": "code",
   "execution_count": 16,
   "id": "9f7d6c4b",
   "metadata": {},
   "outputs": [
    {
     "name": "stderr",
     "output_type": "stream",
     "text": [
      "ffmpeg version 5.1.2 Copyright (c) 2000-2022 the FFmpeg developers\n",
      "  built with Apple clang version 14.0.0 (clang-1400.0.29.202)\n",
      "  configuration: --prefix=/opt/homebrew/Cellar/ffmpeg/5.1.2_1 --enable-shared --enable-pthreads --enable-version3 --cc=clang --host-cflags= --host-ldflags= --enable-ffplay --enable-gnutls --enable-gpl --enable-libaom --enable-libbluray --enable-libdav1d --enable-libmp3lame --enable-libopus --enable-librav1e --enable-librist --enable-librubberband --enable-libsnappy --enable-libsrt --enable-libtesseract --enable-libtheora --enable-libvidstab --enable-libvmaf --enable-libvorbis --enable-libvpx --enable-libwebp --enable-libx264 --enable-libx265 --enable-libxml2 --enable-libxvid --enable-lzma --enable-libfontconfig --enable-libfreetype --enable-frei0r --enable-libass --enable-libopencore-amrnb --enable-libopencore-amrwb --enable-libopenjpeg --enable-libspeex --enable-libsoxr --enable-libzmq --enable-libzimg --disable-libjack --disable-indev=jack --enable-videotoolbox --enable-neon\n",
      "  libavutil      57. 28.100 / 57. 28.100\n",
      "  libavcodec     59. 37.100 / 59. 37.100\n",
      "  libavformat    59. 27.100 / 59. 27.100\n",
      "  libavdevice    59.  7.100 / 59.  7.100\n",
      "  libavfilter     8. 44.100 /  8. 44.100\n",
      "  libswscale      6.  7.100 /  6.  7.100\n",
      "  libswresample   4.  7.100 /  4.  7.100\n",
      "  libpostproc    56.  6.100 / 56.  6.100\n",
      "Input #0, image2, from 'P_%03d.png':\n",
      "  Duration: 00:00:03.20, start: 0.000000, bitrate: N/A\n",
      "  Stream #0:0: Video: png, rgba(pc), 4000x2400 [SAR 3937:3937 DAR 5:3], 25 fps, 25 tbr, 25 tbn\n",
      "Stream mapping:\n",
      "  Stream #0:0 -> #0:0 (png (native) -> h264 (libx264))\n",
      "Press [q] to stop, [?] for help\n",
      "[libx264 @ 0x12b606280] using SAR=1/1\n",
      "[libx264 @ 0x12b606280] using cpu capabilities: ARMv8 NEON\n",
      "[libx264 @ 0x12b606280] profile High, level 6.0, 4:2:0, 8-bit\n",
      "[libx264 @ 0x12b606280] 264 - core 164 r3095 baee400 - H.264/MPEG-4 AVC codec - Copyleft 2003-2022 - http://www.videolan.org/x264.html - options: cabac=1 ref=3 deblock=1:0:0 analyse=0x3:0x113 me=hex subme=7 psy=1 psy_rd=1.00:0.00 mixed_ref=1 me_range=16 chroma_me=1 trellis=1 8x8dct=1 cqm=0 deadzone=21,11 fast_pskip=1 chroma_qp_offset=-2 threads=15 lookahead_threads=2 sliced_threads=0 nr=0 decimate=1 interlaced=0 bluray_compat=0 constrained_intra=0 bframes=3 b_pyramid=2 b_adapt=1 b_bias=0 direct=1 weightb=1 open_gop=0 weightp=2 keyint=250 keyint_min=5 scenecut=40 intra_refresh=0 rc_lookahead=40 rc=crf mbtree=1 crf=20.0 qcomp=0.60 qpmin=0 qpmax=69 qpstep=4 ip_ratio=1.40 aq=1:1.00\n",
      "Output #0, mp4, to 'result.mp4':\n",
      "  Metadata:\n",
      "    encoder         : Lavf59.27.100\n",
      "  Stream #0:0: Video: h264 (avc1 / 0x31637661), yuv420p(tv, progressive), 4000x2400 [SAR 1:1 DAR 5:3], q=2-31, 5 fps, 10240 tbn\n",
      "    Metadata:\n",
      "      encoder         : Lavc59.37.100 libx264\n",
      "    Side data:\n",
      "      cpb: bitrate max/min/avg: 0/0/0 buffer size: 0 vbv_delay: N/A\n",
      "frame=   80 fps= 25 q=-1.0 Lsize=    3815kB time=00:00:15.40 bitrate=2029.2kbits/s speed=4.86x       \n",
      "video:3813kB audio:0kB subtitle:0kB other streams:0kB global headers:0kB muxing overhead: 0.044514%\n",
      "[libx264 @ 0x12b606280] frame I:1     Avg QP: 3.55  size:149498\n",
      "[libx264 @ 0x12b606280] frame P:41    Avg QP:11.80  size: 60796\n",
      "[libx264 @ 0x12b606280] frame B:38    Avg QP:17.80  size: 33199\n",
      "[libx264 @ 0x12b606280] consecutive B-frames: 26.2% 27.5% 11.2% 35.0%\n",
      "[libx264 @ 0x12b606280] mb I  I16..4: 92.5%  3.5%  4.0%\n",
      "[libx264 @ 0x12b606280] mb P  I16..4:  0.7%  0.2%  0.7%  P16..4:  2.6%  1.1%  1.1%  0.0%  0.0%    skip:93.7%\n",
      "[libx264 @ 0x12b606280] mb B  I16..4:  0.2%  0.1%  0.3%  B16..8:  3.4%  1.2%  0.8%  direct: 0.3%  skip:93.8%  L0:50.7% L1:43.6% BI: 5.8%\n",
      "[libx264 @ 0x12b606280] 8x8 transform intra:7.3% inter:8.1%\n",
      "[libx264 @ 0x12b606280] coded y,uvDC,uvAC intra: 14.5% 15.2% 14.6% inter: 1.2% 2.1% 2.1%\n",
      "[libx264 @ 0x12b606280] i16 v,h,dc,p: 91%  9%  1%  0%\n",
      "[libx264 @ 0x12b606280] i8 v,h,dc,ddl,ddr,vr,hd,vl,hu: 25%  5% 66%  1%  0%  0%  1%  1%  1%\n",
      "[libx264 @ 0x12b606280] i4 v,h,dc,ddl,ddr,vr,hd,vl,hu: 26% 18% 32%  3%  6%  3%  7%  3%  3%\n",
      "[libx264 @ 0x12b606280] i8c dc,h,v,p: 84%  4% 12%  0%\n",
      "[libx264 @ 0x12b606280] Weighted P-Frames: Y:0.0% UV:0.0%\n",
      "[libx264 @ 0x12b606280] ref P L0: 61.0%  6.5% 21.0% 11.6%\n",
      "[libx264 @ 0x12b606280] ref B L0: 77.3% 19.5%  3.2%\n",
      "[libx264 @ 0x12b606280] ref B L1: 96.2%  3.8%\n",
      "[libx264 @ 0x12b606280] kb/s:1951.86\n",
      "ffmpeg version 5.1.2 Copyright (c) 2000-2022 the FFmpeg developers\n",
      "  built with Apple clang version 14.0.0 (clang-1400.0.29.202)\n",
      "  configuration: --prefix=/opt/homebrew/Cellar/ffmpeg/5.1.2_1 --enable-shared --enable-pthreads --enable-version3 --cc=clang --host-cflags= --host-ldflags= --enable-ffplay --enable-gnutls --enable-gpl --enable-libaom --enable-libbluray --enable-libdav1d --enable-libmp3lame --enable-libopus --enable-librav1e --enable-librist --enable-librubberband --enable-libsnappy --enable-libsrt --enable-libtesseract --enable-libtheora --enable-libvidstab --enable-libvmaf --enable-libvorbis --enable-libvpx --enable-libwebp --enable-libx264 --enable-libx265 --enable-libxml2 --enable-libxvid --enable-lzma --enable-libfontconfig --enable-libfreetype --enable-frei0r --enable-libass --enable-libopencore-amrnb --enable-libopencore-amrwb --enable-libopenjpeg --enable-libspeex --enable-libsoxr --enable-libzmq --enable-libzimg --disable-libjack --disable-indev=jack --enable-videotoolbox --enable-neon\n",
      "  libavutil      57. 28.100 / 57. 28.100\n",
      "  libavcodec     59. 37.100 / 59. 37.100\n",
      "  libavformat    59. 27.100 / 59. 27.100\n",
      "  libavdevice    59.  7.100 / 59.  7.100\n",
      "  libavfilter     8. 44.100 /  8. 44.100\n",
      "  libswscale      6.  7.100 /  6.  7.100\n",
      "  libswresample   4.  7.100 /  4.  7.100\n",
      "  libpostproc    56.  6.100 / 56.  6.100\n",
      "Input #0, image2, from 'P_%03d.png':\n",
      "  Duration: 00:00:03.20, start: 0.000000, bitrate: N/A\n",
      "  Stream #0:0: Video: png, rgba(pc), 4000x2400 [SAR 3937:3937 DAR 5:3], 25 fps, 25 tbr, 25 tbn\n",
      "Stream mapping:\n",
      "  Stream #0:0 -> #0:0 (png (native) -> h264 (libx264))\n",
      "Press [q] to stop, [?] for help\n",
      "[libx264 @ 0x14df06b20] using SAR=1/1\n",
      "[libx264 @ 0x14df06b20] using cpu capabilities: ARMv8 NEON\n",
      "[libx264 @ 0x14df06b20] profile High, level 6.0, 4:2:0, 8-bit\n",
      "[libx264 @ 0x14df06b20] 264 - core 164 r3095 baee400 - H.264/MPEG-4 AVC codec - Copyleft 2003-2022 - http://www.videolan.org/x264.html - options: cabac=1 ref=3 deblock=1:0:0 analyse=0x3:0x113 me=hex subme=7 psy=1 psy_rd=1.00:0.00 mixed_ref=1 me_range=16 chroma_me=1 trellis=1 8x8dct=1 cqm=0 deadzone=21,11 fast_pskip=1 chroma_qp_offset=-2 threads=15 lookahead_threads=2 sliced_threads=0 nr=0 decimate=1 interlaced=0 bluray_compat=0 constrained_intra=0 bframes=3 b_pyramid=2 b_adapt=1 b_bias=0 direct=1 weightb=1 open_gop=0 weightp=2 keyint=250 keyint_min=5 scenecut=40 intra_refresh=0 rc_lookahead=40 rc=crf mbtree=1 crf=20.0 qcomp=0.60 qpmin=0 qpmax=69 qpstep=4 ip_ratio=1.40 aq=1:1.00\n",
      "Output #0, mp4, to 'result.mp4':\n",
      "  Metadata:\n",
      "    encoder         : Lavf59.27.100\n",
      "  Stream #0:0: Video: h264 (avc1 / 0x31637661), yuv420p(tv, progressive), 4000x2400 [SAR 1:1 DAR 5:3], q=2-31, 5 fps, 10240 tbn\n",
      "    Metadata:\n",
      "      encoder         : Lavc59.37.100 libx264\n",
      "    Side data:\n",
      "      cpb: bitrate max/min/avg: 0/0/0 buffer size: 0 vbv_delay: N/A\n",
      "frame=   80 fps= 27 q=-1.0 Lsize=    3444kB time=00:00:15.40 bitrate=1832.2kbits/s speed=5.12x    \n",
      "video:3443kB audio:0kB subtitle:0kB other streams:0kB global headers:0kB muxing overhead: 0.047938%\n",
      "[libx264 @ 0x14df06b20] frame I:1     Avg QP: 2.44  size:149708\n",
      "[libx264 @ 0x14df06b20] frame P:47    Avg QP:12.20  size: 52523\n",
      "[libx264 @ 0x14df06b20] frame B:32    Avg QP:18.80  size: 28326\n",
      "[libx264 @ 0x14df06b20] consecutive B-frames: 38.8% 20.0% 11.2% 30.0%\n",
      "[libx264 @ 0x14df06b20] mb I  I16..4: 95.6%  0.4%  4.0%\n",
      "[libx264 @ 0x14df06b20] mb P  I16..4:  0.7%  0.1%  0.5%  P16..4:  3.0%  1.1%  1.1%  0.0%  0.0%    skip:93.4%\n",
      "[libx264 @ 0x14df06b20] mb B  I16..4:  0.2%  0.1%  0.2%  B16..8:  3.6%  1.2%  0.6%  direct: 0.3%  skip:93.8%  L0:50.9% L1:44.0% BI: 5.2%\n",
      "[libx264 @ 0x14df06b20] 8x8 transform intra:5.1% inter:13.0%\n",
      "[libx264 @ 0x14df06b20] coded y,uvDC,uvAC intra: 12.0% 13.9% 13.3% inter: 1.1% 2.1% 2.1%\n",
      "[libx264 @ 0x14df06b20] i16 v,h,dc,p: 90%  9%  1%  0%\n",
      "[libx264 @ 0x14df06b20] i8 v,h,dc,ddl,ddr,vr,hd,vl,hu:  7%  6% 85%  0%  0%  0%  0%  0%  0%\n",
      "[libx264 @ 0x14df06b20] i4 v,h,dc,ddl,ddr,vr,hd,vl,hu: 26% 19% 34%  2%  5%  3%  5%  3%  2%\n",
      "[libx264 @ 0x14df06b20] i8c dc,h,v,p: 83%  4% 13%  0%\n",
      "[libx264 @ 0x14df06b20] Weighted P-Frames: Y:0.0% UV:0.0%\n",
      "[libx264 @ 0x14df06b20] ref P L0: 65.8%  3.6% 19.9% 10.7%\n",
      "[libx264 @ 0x14df06b20] ref B L0: 78.7% 18.3%  3.1%\n",
      "[libx264 @ 0x14df06b20] ref B L1: 96.0%  4.0%\n",
      "[libx264 @ 0x14df06b20] kb/s:1762.34\n",
      "ffmpeg version 5.1.2 Copyright (c) 2000-2022 the FFmpeg developers\n",
      "  built with Apple clang version 14.0.0 (clang-1400.0.29.202)\n",
      "  configuration: --prefix=/opt/homebrew/Cellar/ffmpeg/5.1.2_1 --enable-shared --enable-pthreads --enable-version3 --cc=clang --host-cflags= --host-ldflags= --enable-ffplay --enable-gnutls --enable-gpl --enable-libaom --enable-libbluray --enable-libdav1d --enable-libmp3lame --enable-libopus --enable-librav1e --enable-librist --enable-librubberband --enable-libsnappy --enable-libsrt --enable-libtesseract --enable-libtheora --enable-libvidstab --enable-libvmaf --enable-libvorbis --enable-libvpx --enable-libwebp --enable-libx264 --enable-libx265 --enable-libxml2 --enable-libxvid --enable-lzma --enable-libfontconfig --enable-libfreetype --enable-frei0r --enable-libass --enable-libopencore-amrnb --enable-libopencore-amrwb --enable-libopenjpeg --enable-libspeex --enable-libsoxr --enable-libzmq --enable-libzimg --disable-libjack --disable-indev=jack --enable-videotoolbox --enable-neon\n",
      "  libavutil      57. 28.100 / 57. 28.100\n",
      "  libavcodec     59. 37.100 / 59. 37.100\n",
      "  libavformat    59. 27.100 / 59. 27.100\n",
      "  libavdevice    59.  7.100 / 59.  7.100\n",
      "  libavfilter     8. 44.100 /  8. 44.100\n",
      "  libswscale      6.  7.100 /  6.  7.100\n",
      "  libswresample   4.  7.100 /  4.  7.100\n",
      "  libpostproc    56.  6.100 / 56.  6.100\n",
      "Input #0, image2, from 'P_%03d.png':\n",
      "  Duration: 00:00:03.20, start: 0.000000, bitrate: N/A\n",
      "  Stream #0:0: Video: png, rgba(pc), 4000x2400 [SAR 3937:3937 DAR 5:3], 25 fps, 25 tbr, 25 tbn\n",
      "Stream mapping:\n",
      "  Stream #0:0 -> #0:0 (png (native) -> h264 (libx264))\n",
      "Press [q] to stop, [?] for help\n"
     ]
    },
    {
     "name": "stderr",
     "output_type": "stream",
     "text": [
      "[libx264 @ 0x125e05500] using SAR=1/1\n",
      "[libx264 @ 0x125e05500] using cpu capabilities: ARMv8 NEON\n",
      "[libx264 @ 0x125e05500] profile High, level 6.0, 4:2:0, 8-bit\n",
      "[libx264 @ 0x125e05500] 264 - core 164 r3095 baee400 - H.264/MPEG-4 AVC codec - Copyleft 2003-2022 - http://www.videolan.org/x264.html - options: cabac=1 ref=3 deblock=1:0:0 analyse=0x3:0x113 me=hex subme=7 psy=1 psy_rd=1.00:0.00 mixed_ref=1 me_range=16 chroma_me=1 trellis=1 8x8dct=1 cqm=0 deadzone=21,11 fast_pskip=1 chroma_qp_offset=-2 threads=15 lookahead_threads=2 sliced_threads=0 nr=0 decimate=1 interlaced=0 bluray_compat=0 constrained_intra=0 bframes=3 b_pyramid=2 b_adapt=1 b_bias=0 direct=1 weightb=1 open_gop=0 weightp=2 keyint=250 keyint_min=5 scenecut=40 intra_refresh=0 rc_lookahead=40 rc=crf mbtree=1 crf=20.0 qcomp=0.60 qpmin=0 qpmax=69 qpstep=4 ip_ratio=1.40 aq=1:1.00\n",
      "Output #0, mp4, to 'result.mp4':\n",
      "  Metadata:\n",
      "    encoder         : Lavf59.27.100\n",
      "  Stream #0:0: Video: h264 (avc1 / 0x31637661), yuv420p(tv, progressive), 4000x2400 [SAR 1:1 DAR 5:3], q=2-31, 5 fps, 10240 tbn\n",
      "    Metadata:\n",
      "      encoder         : Lavc59.37.100 libx264\n",
      "    Side data:\n",
      "      cpb: bitrate max/min/avg: 0/0/0 buffer size: 0 vbv_delay: N/A\n",
      "frame=   80 fps= 25 q=-1.0 Lsize=    3765kB time=00:00:15.40 bitrate=2002.8kbits/s speed= 4.9x     \n",
      "video:3763kB audio:0kB subtitle:0kB other streams:0kB global headers:0kB muxing overhead: 0.046035%\n",
      "[libx264 @ 0x125e05500] frame I:1     Avg QP: 2.56  size:149391\n",
      "[libx264 @ 0x125e05500] frame P:39    Avg QP:11.79  size: 60371\n",
      "[libx264 @ 0x125e05500] frame B:40    Avg QP:17.65  size: 33725\n",
      "[libx264 @ 0x125e05500] consecutive B-frames: 26.2% 20.0%  3.8% 50.0%\n",
      "[libx264 @ 0x125e05500] mb I  I16..4: 95.6%  0.5%  4.0%\n",
      "[libx264 @ 0x125e05500] mb P  I16..4:  0.6%  0.1%  0.6%  P16..4:  2.6%  1.0%  1.1%  0.0%  0.0%    skip:94.0%\n",
      "[libx264 @ 0x125e05500] mb B  I16..4:  0.2%  0.1%  0.3%  B16..8:  3.1%  1.1%  0.7%  direct: 0.2%  skip:94.2%  L0:49.7% L1:44.3% BI: 6.1%\n",
      "[libx264 @ 0x125e05500] 8x8 transform intra:4.5% inter:7.9%\n",
      "[libx264 @ 0x125e05500] coded y,uvDC,uvAC intra: 14.9% 14.7% 14.1% inter: 1.2% 2.0% 1.9%\n",
      "[libx264 @ 0x125e05500] i16 v,h,dc,p: 91%  9%  1%  0%\n",
      "[libx264 @ 0x125e05500] i8 v,h,dc,ddl,ddr,vr,hd,vl,hu:  9%  5% 80%  1%  1%  1%  1%  1%  1%\n",
      "[libx264 @ 0x125e05500] i4 v,h,dc,ddl,ddr,vr,hd,vl,hu: 25% 17% 32%  3%  6%  3%  7%  3%  3%\n",
      "[libx264 @ 0x125e05500] i8c dc,h,v,p: 86%  4% 10%  0%\n",
      "[libx264 @ 0x125e05500] Weighted P-Frames: Y:0.0% UV:0.0%\n",
      "[libx264 @ 0x125e05500] ref P L0: 61.7%  6.6% 20.4% 11.3%\n",
      "[libx264 @ 0x125e05500] ref B L0: 79.6% 17.7%  2.7%\n",
      "[libx264 @ 0x125e05500] ref B L1: 95.0%  5.0%\n",
      "[libx264 @ 0x125e05500] kb/s:1926.44\n",
      "ffmpeg version 5.1.2 Copyright (c) 2000-2022 the FFmpeg developers\n",
      "  built with Apple clang version 14.0.0 (clang-1400.0.29.202)\n",
      "  configuration: --prefix=/opt/homebrew/Cellar/ffmpeg/5.1.2_1 --enable-shared --enable-pthreads --enable-version3 --cc=clang --host-cflags= --host-ldflags= --enable-ffplay --enable-gnutls --enable-gpl --enable-libaom --enable-libbluray --enable-libdav1d --enable-libmp3lame --enable-libopus --enable-librav1e --enable-librist --enable-librubberband --enable-libsnappy --enable-libsrt --enable-libtesseract --enable-libtheora --enable-libvidstab --enable-libvmaf --enable-libvorbis --enable-libvpx --enable-libwebp --enable-libx264 --enable-libx265 --enable-libxml2 --enable-libxvid --enable-lzma --enable-libfontconfig --enable-libfreetype --enable-frei0r --enable-libass --enable-libopencore-amrnb --enable-libopencore-amrwb --enable-libopenjpeg --enable-libspeex --enable-libsoxr --enable-libzmq --enable-libzimg --disable-libjack --disable-indev=jack --enable-videotoolbox --enable-neon\n",
      "  libavutil      57. 28.100 / 57. 28.100\n",
      "  libavcodec     59. 37.100 / 59. 37.100\n",
      "  libavformat    59. 27.100 / 59. 27.100\n",
      "  libavdevice    59.  7.100 / 59.  7.100\n",
      "  libavfilter     8. 44.100 /  8. 44.100\n",
      "  libswscale      6.  7.100 /  6.  7.100\n",
      "  libswresample   4.  7.100 /  4.  7.100\n",
      "  libpostproc    56.  6.100 / 56.  6.100\n",
      "Input #0, image2, from 'P_%03d.png':\n",
      "  Duration: 00:00:03.20, start: 0.000000, bitrate: N/A\n",
      "  Stream #0:0: Video: png, rgba(pc), 4000x2400 [SAR 3937:3937 DAR 5:3], 25 fps, 25 tbr, 25 tbn\n",
      "Stream mapping:\n",
      "  Stream #0:0 -> #0:0 (png (native) -> h264 (libx264))\n",
      "Press [q] to stop, [?] for help\n",
      "[libx264 @ 0x138605f40] using SAR=1/1\n",
      "[libx264 @ 0x138605f40] using cpu capabilities: ARMv8 NEON\n",
      "[libx264 @ 0x138605f40] profile High, level 6.0, 4:2:0, 8-bit\n",
      "[libx264 @ 0x138605f40] 264 - core 164 r3095 baee400 - H.264/MPEG-4 AVC codec - Copyleft 2003-2022 - http://www.videolan.org/x264.html - options: cabac=1 ref=3 deblock=1:0:0 analyse=0x3:0x113 me=hex subme=7 psy=1 psy_rd=1.00:0.00 mixed_ref=1 me_range=16 chroma_me=1 trellis=1 8x8dct=1 cqm=0 deadzone=21,11 fast_pskip=1 chroma_qp_offset=-2 threads=15 lookahead_threads=2 sliced_threads=0 nr=0 decimate=1 interlaced=0 bluray_compat=0 constrained_intra=0 bframes=3 b_pyramid=2 b_adapt=1 b_bias=0 direct=1 weightb=1 open_gop=0 weightp=2 keyint=250 keyint_min=5 scenecut=40 intra_refresh=0 rc_lookahead=40 rc=crf mbtree=1 crf=20.0 qcomp=0.60 qpmin=0 qpmax=69 qpstep=4 ip_ratio=1.40 aq=1:1.00\n",
      "Output #0, mp4, to 'result.mp4':\n",
      "  Metadata:\n",
      "    encoder         : Lavf59.27.100\n",
      "  Stream #0:0: Video: h264 (avc1 / 0x31637661), yuv420p(tv, progressive), 4000x2400 [SAR 1:1 DAR 5:3], q=2-31, 5 fps, 10240 tbn\n",
      "    Metadata:\n",
      "      encoder         : Lavc59.37.100 libx264\n",
      "    Side data:\n",
      "      cpb: bitrate max/min/avg: 0/0/0 buffer size: 0 vbv_delay: N/A\n",
      "frame=   80 fps= 26 q=-1.0 Lsize=    3422kB time=00:00:15.40 bitrate=1820.4kbits/s speed=5.05x    \n",
      "video:3421kB audio:0kB subtitle:0kB other streams:0kB global headers:0kB muxing overhead: 0.048021%\n",
      "[libx264 @ 0x138605f40] frame I:1     Avg QP: 3.91  size:149645\n",
      "[libx264 @ 0x138605f40] frame P:52    Avg QP:12.31  size: 50663\n",
      "[libx264 @ 0x138605f40] frame B:27    Avg QP:18.51  size: 26586\n",
      "[libx264 @ 0x138605f40] consecutive B-frames: 45.0% 27.5%  7.5% 20.0%\n",
      "[libx264 @ 0x138605f40] mb I  I16..4: 90.1%  5.9%  4.0%\n",
      "[libx264 @ 0x138605f40] mb P  I16..4:  0.6%  0.1%  0.5%  P16..4:  2.9%  1.1%  1.1%  0.0%  0.0%    skip:93.6%\n",
      "[libx264 @ 0x138605f40] mb B  I16..4:  0.2%  0.1%  0.2%  B16..8:  3.6%  1.2%  0.6%  direct: 0.3%  skip:93.9%  L0:51.3% L1:43.5% BI: 5.2%\n",
      "[libx264 @ 0x138605f40] 8x8 transform intra:8.3% inter:12.8%\n",
      "[libx264 @ 0x138605f40] coded y,uvDC,uvAC intra: 11.6% 13.3% 12.7% inter: 1.1% 2.1% 2.0%\n",
      "[libx264 @ 0x138605f40] i16 v,h,dc,p: 89% 10%  1%  0%\n",
      "[libx264 @ 0x138605f40] i8 v,h,dc,ddl,ddr,vr,hd,vl,hu: 37%  5% 58%  0%  0%  0%  0%  0%  0%\n",
      "[libx264 @ 0x138605f40] i4 v,h,dc,ddl,ddr,vr,hd,vl,hu: 26% 19% 35%  2%  5%  3%  5%  3%  2%\n",
      "[libx264 @ 0x138605f40] i8c dc,h,v,p: 85%  4% 11%  0%\n",
      "[libx264 @ 0x138605f40] Weighted P-Frames: Y:0.0% UV:0.0%\n",
      "[libx264 @ 0x138605f40] ref P L0: 65.8%  3.6% 19.7% 10.9%\n",
      "[libx264 @ 0x138605f40] ref B L0: 76.7% 20.5%  2.8%\n",
      "[libx264 @ 0x138605f40] ref B L1: 96.6%  3.4%\n",
      "[libx264 @ 0x138605f40] kb/s:1750.96\n",
      "ffmpeg version 5.1.2 Copyright (c) 2000-2022 the FFmpeg developers\n",
      "  built with Apple clang version 14.0.0 (clang-1400.0.29.202)\n",
      "  configuration: --prefix=/opt/homebrew/Cellar/ffmpeg/5.1.2_1 --enable-shared --enable-pthreads --enable-version3 --cc=clang --host-cflags= --host-ldflags= --enable-ffplay --enable-gnutls --enable-gpl --enable-libaom --enable-libbluray --enable-libdav1d --enable-libmp3lame --enable-libopus --enable-librav1e --enable-librist --enable-librubberband --enable-libsnappy --enable-libsrt --enable-libtesseract --enable-libtheora --enable-libvidstab --enable-libvmaf --enable-libvorbis --enable-libvpx --enable-libwebp --enable-libx264 --enable-libx265 --enable-libxml2 --enable-libxvid --enable-lzma --enable-libfontconfig --enable-libfreetype --enable-frei0r --enable-libass --enable-libopencore-amrnb --enable-libopencore-amrwb --enable-libopenjpeg --enable-libspeex --enable-libsoxr --enable-libzmq --enable-libzimg --disable-libjack --disable-indev=jack --enable-videotoolbox --enable-neon\n",
      "  libavutil      57. 28.100 / 57. 28.100\n",
      "  libavcodec     59. 37.100 / 59. 37.100\n",
      "  libavformat    59. 27.100 / 59. 27.100\n",
      "  libavdevice    59.  7.100 / 59.  7.100\n",
      "  libavfilter     8. 44.100 /  8. 44.100\n",
      "  libswscale      6.  7.100 /  6.  7.100\n",
      "  libswresample   4.  7.100 /  4.  7.100\n",
      "  libpostproc    56.  6.100 / 56.  6.100\n"
     ]
    },
    {
     "name": "stderr",
     "output_type": "stream",
     "text": [
      "Input #0, image2, from 'P_%03d.png':\n",
      "  Duration: 00:00:03.20, start: 0.000000, bitrate: N/A\n",
      "  Stream #0:0: Video: png, rgba(pc), 4000x2400 [SAR 3937:3937 DAR 5:3], 25 fps, 25 tbr, 25 tbn\n",
      "Stream mapping:\n",
      "  Stream #0:0 -> #0:0 (png (native) -> h264 (libx264))\n",
      "Press [q] to stop, [?] for help\n",
      "[libx264 @ 0x12ff05650] using SAR=1/1\n",
      "[libx264 @ 0x12ff05650] using cpu capabilities: ARMv8 NEON\n",
      "[libx264 @ 0x12ff05650] profile High, level 6.0, 4:2:0, 8-bit\n",
      "[libx264 @ 0x12ff05650] 264 - core 164 r3095 baee400 - H.264/MPEG-4 AVC codec - Copyleft 2003-2022 - http://www.videolan.org/x264.html - options: cabac=1 ref=3 deblock=1:0:0 analyse=0x3:0x113 me=hex subme=7 psy=1 psy_rd=1.00:0.00 mixed_ref=1 me_range=16 chroma_me=1 trellis=1 8x8dct=1 cqm=0 deadzone=21,11 fast_pskip=1 chroma_qp_offset=-2 threads=15 lookahead_threads=2 sliced_threads=0 nr=0 decimate=1 interlaced=0 bluray_compat=0 constrained_intra=0 bframes=3 b_pyramid=2 b_adapt=1 b_bias=0 direct=1 weightb=1 open_gop=0 weightp=2 keyint=250 keyint_min=5 scenecut=40 intra_refresh=0 rc_lookahead=40 rc=crf mbtree=1 crf=20.0 qcomp=0.60 qpmin=0 qpmax=69 qpstep=4 ip_ratio=1.40 aq=1:1.00\n",
      "Output #0, mp4, to 'result.mp4':\n",
      "  Metadata:\n",
      "    encoder         : Lavf59.27.100\n",
      "  Stream #0:0: Video: h264 (avc1 / 0x31637661), yuv420p(tv, progressive), 4000x2400 [SAR 1:1 DAR 5:3], q=2-31, 5 fps, 10240 tbn\n",
      "    Metadata:\n",
      "      encoder         : Lavc59.37.100 libx264\n",
      "    Side data:\n",
      "      cpb: bitrate max/min/avg: 0/0/0 buffer size: 0 vbv_delay: N/A\n",
      "frame=   80 fps= 25 q=-1.0 Lsize=    2958kB time=00:00:15.40 bitrate=1573.3kbits/s speed=4.79x       \n",
      "video:2956kB audio:0kB subtitle:0kB other streams:0kB global headers:0kB muxing overhead: 0.054906%\n",
      "[libx264 @ 0x12ff05650] frame I:1     Avg QP: 2.53  size:149284\n",
      "[libx264 @ 0x12ff05650] frame P:45    Avg QP:10.68  size: 42938\n",
      "[libx264 @ 0x12ff05650] frame B:34    Avg QP:17.82  size: 27788\n",
      "[libx264 @ 0x12ff05650] consecutive B-frames: 35.0% 20.0% 15.0% 30.0%\n",
      "[libx264 @ 0x12ff05650] mb I  I16..4: 95.5%  0.5%  4.0%\n",
      "[libx264 @ 0x12ff05650] mb P  I16..4:  1.3%  0.2%  0.4%  P16..4:  2.2%  0.8%  0.7%  0.0%  0.0%    skip:94.3%\n",
      "[libx264 @ 0x12ff05650] mb B  I16..4:  0.2%  0.0%  0.1%  B16..8:  3.3%  1.0%  0.6%  direct: 0.5%  skip:94.2%  L0:51.2% L1:43.2% BI: 5.6%\n",
      "[libx264 @ 0x12ff05650] 8x8 transform intra:5.5% inter:7.9%\n",
      "[libx264 @ 0x12ff05650] coded y,uvDC,uvAC intra: 9.5% 8.9% 8.5% inter: 0.9% 1.9% 1.8%\n",
      "[libx264 @ 0x12ff05650] i16 v,h,dc,p: 93%  7%  1%  0%\n",
      "[libx264 @ 0x12ff05650] i8 v,h,dc,ddl,ddr,vr,hd,vl,hu:  6%  3% 88%  0%  0%  0%  0%  1%  1%\n",
      "[libx264 @ 0x12ff05650] i4 v,h,dc,ddl,ddr,vr,hd,vl,hu: 23% 19% 33%  4%  7%  3%  4%  3%  4%\n",
      "[libx264 @ 0x12ff05650] i8c dc,h,v,p: 74%  3% 22%  0%\n",
      "[libx264 @ 0x12ff05650] Weighted P-Frames: Y:0.0% UV:0.0%\n",
      "[libx264 @ 0x12ff05650] ref P L0: 64.6%  4.9% 20.5% 10.1%\n",
      "[libx264 @ 0x12ff05650] ref B L0: 77.9% 18.6%  3.5%\n",
      "[libx264 @ 0x12ff05650] ref B L1: 95.6%  4.4%\n",
      "[libx264 @ 0x12ff05650] kb/s:1513.14\n",
      "ffmpeg version 5.1.2 Copyright (c) 2000-2022 the FFmpeg developers\n",
      "  built with Apple clang version 14.0.0 (clang-1400.0.29.202)\n",
      "  configuration: --prefix=/opt/homebrew/Cellar/ffmpeg/5.1.2_1 --enable-shared --enable-pthreads --enable-version3 --cc=clang --host-cflags= --host-ldflags= --enable-ffplay --enable-gnutls --enable-gpl --enable-libaom --enable-libbluray --enable-libdav1d --enable-libmp3lame --enable-libopus --enable-librav1e --enable-librist --enable-librubberband --enable-libsnappy --enable-libsrt --enable-libtesseract --enable-libtheora --enable-libvidstab --enable-libvmaf --enable-libvorbis --enable-libvpx --enable-libwebp --enable-libx264 --enable-libx265 --enable-libxml2 --enable-libxvid --enable-lzma --enable-libfontconfig --enable-libfreetype --enable-frei0r --enable-libass --enable-libopencore-amrnb --enable-libopencore-amrwb --enable-libopenjpeg --enable-libspeex --enable-libsoxr --enable-libzmq --enable-libzimg --disable-libjack --disable-indev=jack --enable-videotoolbox --enable-neon\n",
      "  libavutil      57. 28.100 / 57. 28.100\n",
      "  libavcodec     59. 37.100 / 59. 37.100\n",
      "  libavformat    59. 27.100 / 59. 27.100\n",
      "  libavdevice    59.  7.100 / 59.  7.100\n",
      "  libavfilter     8. 44.100 /  8. 44.100\n",
      "  libswscale      6.  7.100 /  6.  7.100\n",
      "  libswresample   4.  7.100 /  4.  7.100\n",
      "  libpostproc    56.  6.100 / 56.  6.100\n",
      "Input #0, image2, from 'P_%03d.png':\n",
      "  Duration: 00:00:03.20, start: 0.000000, bitrate: N/A\n",
      "  Stream #0:0: Video: png, rgba(pc), 4000x2400 [SAR 3937:3937 DAR 5:3], 25 fps, 25 tbr, 25 tbn\n",
      "Stream mapping:\n",
      "  Stream #0:0 -> #0:0 (png (native) -> h264 (libx264))\n",
      "Press [q] to stop, [?] for help\n",
      "[libx264 @ 0x10be05500] using SAR=1/1\n",
      "[libx264 @ 0x10be05500] using cpu capabilities: ARMv8 NEON\n",
      "[libx264 @ 0x10be05500] profile High, level 6.0, 4:2:0, 8-bit\n",
      "[libx264 @ 0x10be05500] 264 - core 164 r3095 baee400 - H.264/MPEG-4 AVC codec - Copyleft 2003-2022 - http://www.videolan.org/x264.html - options: cabac=1 ref=3 deblock=1:0:0 analyse=0x3:0x113 me=hex subme=7 psy=1 psy_rd=1.00:0.00 mixed_ref=1 me_range=16 chroma_me=1 trellis=1 8x8dct=1 cqm=0 deadzone=21,11 fast_pskip=1 chroma_qp_offset=-2 threads=15 lookahead_threads=2 sliced_threads=0 nr=0 decimate=1 interlaced=0 bluray_compat=0 constrained_intra=0 bframes=3 b_pyramid=2 b_adapt=1 b_bias=0 direct=1 weightb=1 open_gop=0 weightp=2 keyint=250 keyint_min=5 scenecut=40 intra_refresh=0 rc_lookahead=40 rc=crf mbtree=1 crf=20.0 qcomp=0.60 qpmin=0 qpmax=69 qpstep=4 ip_ratio=1.40 aq=1:1.00\n",
      "Output #0, mp4, to 'result.mp4':\n",
      "  Metadata:\n",
      "    encoder         : Lavf59.27.100\n",
      "  Stream #0:0: Video: h264 (avc1 / 0x31637661), yuv420p(tv, progressive), 4000x2400 [SAR 1:1 DAR 5:3], q=2-31, 5 fps, 10240 tbn\n",
      "    Metadata:\n",
      "      encoder         : Lavc59.37.100 libx264\n",
      "    Side data:\n",
      "      cpb: bitrate max/min/avg: 0/0/0 buffer size: 0 vbv_delay: N/A\n",
      "frame=   80 fps= 27 q=-1.0 Lsize=    2284kB time=00:00:15.40 bitrate=1215.0kbits/s speed=5.12x    \n",
      "video:2282kB audio:0kB subtitle:0kB other streams:0kB global headers:0kB muxing overhead: 0.073506%\n",
      "[libx264 @ 0x10be05500] frame I:1     Avg QP: 4.63  size:150005\n",
      "[libx264 @ 0x10be05500] frame P:44    Avg QP:11.56  size: 31871\n",
      "[libx264 @ 0x10be05500] frame B:35    Avg QP:18.45  size: 22406\n",
      "[libx264 @ 0x10be05500] consecutive B-frames: 33.8% 22.5%  3.8% 40.0%\n",
      "[libx264 @ 0x10be05500] mb I  I16..4: 81.1% 14.8%  4.1%\n",
      "[libx264 @ 0x10be05500] mb P  I16..4:  1.4%  0.2%  0.4%  P16..4:  2.1%  0.8%  0.6%  0.0%  0.0%    skip:94.4%\n",
      "[libx264 @ 0x10be05500] mb B  I16..4:  0.2%  0.0%  0.1%  B16..8:  3.3%  0.9%  0.5%  direct: 0.4%  skip:94.4%  L0:51.0% L1:44.0% BI: 5.1%\n",
      "[libx264 @ 0x10be05500] 8x8 transform intra:12.9% inter:8.8%\n",
      "[libx264 @ 0x10be05500] coded y,uvDC,uvAC intra: 7.2% 8.7% 8.3% inter: 0.6% 1.8% 1.8%\n",
      "[libx264 @ 0x10be05500] i16 v,h,dc,p: 91%  8%  1%  0%\n",
      "[libx264 @ 0x10be05500] i8 v,h,dc,ddl,ddr,vr,hd,vl,hu: 41%  3% 56%  0%  0%  0%  0%  0%  0%\n",
      "[libx264 @ 0x10be05500] i4 v,h,dc,ddl,ddr,vr,hd,vl,hu: 24% 21% 36%  3%  5%  2%  4%  2%  2%\n",
      "[libx264 @ 0x10be05500] i8c dc,h,v,p: 72%  3% 24%  0%\n",
      "[libx264 @ 0x10be05500] Weighted P-Frames: Y:0.0% UV:0.0%\n",
      "[libx264 @ 0x10be05500] ref P L0: 64.7%  1.8% 22.5% 11.0%\n",
      "[libx264 @ 0x10be05500] ref B L0: 77.8% 19.4%  2.9%\n",
      "[libx264 @ 0x10be05500] ref B L1: 94.6%  5.4%\n",
      "[libx264 @ 0x10be05500] kb/s:1168.27\n",
      "ffmpeg version 5.1.2 Copyright (c) 2000-2022 the FFmpeg developers\n",
      "  built with Apple clang version 14.0.0 (clang-1400.0.29.202)\n",
      "  configuration: --prefix=/opt/homebrew/Cellar/ffmpeg/5.1.2_1 --enable-shared --enable-pthreads --enable-version3 --cc=clang --host-cflags= --host-ldflags= --enable-ffplay --enable-gnutls --enable-gpl --enable-libaom --enable-libbluray --enable-libdav1d --enable-libmp3lame --enable-libopus --enable-librav1e --enable-librist --enable-librubberband --enable-libsnappy --enable-libsrt --enable-libtesseract --enable-libtheora --enable-libvidstab --enable-libvmaf --enable-libvorbis --enable-libvpx --enable-libwebp --enable-libx264 --enable-libx265 --enable-libxml2 --enable-libxvid --enable-lzma --enable-libfontconfig --enable-libfreetype --enable-frei0r --enable-libass --enable-libopencore-amrnb --enable-libopencore-amrwb --enable-libopenjpeg --enable-libspeex --enable-libsoxr --enable-libzmq --enable-libzimg --disable-libjack --disable-indev=jack --enable-videotoolbox --enable-neon\n",
      "  libavutil      57. 28.100 / 57. 28.100\n",
      "  libavcodec     59. 37.100 / 59. 37.100\n",
      "  libavformat    59. 27.100 / 59. 27.100\n",
      "  libavdevice    59.  7.100 / 59.  7.100\n",
      "  libavfilter     8. 44.100 /  8. 44.100\n",
      "  libswscale      6.  7.100 /  6.  7.100\n",
      "  libswresample   4.  7.100 /  4.  7.100\n",
      "  libpostproc    56.  6.100 / 56.  6.100\n"
     ]
    },
    {
     "name": "stderr",
     "output_type": "stream",
     "text": [
      "Input #0, image2, from 'P_%03d.png':\n",
      "  Duration: 00:00:03.20, start: 0.000000, bitrate: N/A\n",
      "  Stream #0:0: Video: png, rgba(pc), 4000x2400 [SAR 3937:3937 DAR 5:3], 25 fps, 25 tbr, 25 tbn\n",
      "Stream mapping:\n",
      "  Stream #0:0 -> #0:0 (png (native) -> h264 (libx264))\n",
      "Press [q] to stop, [?] for help\n",
      "[libx264 @ 0x14f005b30] using SAR=1/1\n",
      "[libx264 @ 0x14f005b30] using cpu capabilities: ARMv8 NEON\n",
      "[libx264 @ 0x14f005b30] profile High, level 6.0, 4:2:0, 8-bit\n",
      "[libx264 @ 0x14f005b30] 264 - core 164 r3095 baee400 - H.264/MPEG-4 AVC codec - Copyleft 2003-2022 - http://www.videolan.org/x264.html - options: cabac=1 ref=3 deblock=1:0:0 analyse=0x3:0x113 me=hex subme=7 psy=1 psy_rd=1.00:0.00 mixed_ref=1 me_range=16 chroma_me=1 trellis=1 8x8dct=1 cqm=0 deadzone=21,11 fast_pskip=1 chroma_qp_offset=-2 threads=15 lookahead_threads=2 sliced_threads=0 nr=0 decimate=1 interlaced=0 bluray_compat=0 constrained_intra=0 bframes=3 b_pyramid=2 b_adapt=1 b_bias=0 direct=1 weightb=1 open_gop=0 weightp=2 keyint=250 keyint_min=5 scenecut=40 intra_refresh=0 rc_lookahead=40 rc=crf mbtree=1 crf=20.0 qcomp=0.60 qpmin=0 qpmax=69 qpstep=4 ip_ratio=1.40 aq=1:1.00\n",
      "Output #0, mp4, to 'result.mp4':\n",
      "  Metadata:\n",
      "    encoder         : Lavf59.27.100\n",
      "  Stream #0:0: Video: h264 (avc1 / 0x31637661), yuv420p(tv, progressive), 4000x2400 [SAR 1:1 DAR 5:3], q=2-31, 5 fps, 10240 tbn\n",
      "    Metadata:\n",
      "      encoder         : Lavc59.37.100 libx264\n",
      "    Side data:\n",
      "      cpb: bitrate max/min/avg: 0/0/0 buffer size: 0 vbv_delay: N/A\n",
      "frame=   80 fps= 25 q=-1.0 Lsize=    3314kB time=00:00:15.40 bitrate=1763.0kbits/s speed=4.74x       \n",
      "video:3313kB audio:0kB subtitle:0kB other streams:0kB global headers:0kB muxing overhead: 0.050883%\n",
      "[libx264 @ 0x14f005b30] frame I:1     Avg QP: 5.24  size:149369\n",
      "[libx264 @ 0x14f005b30] frame P:45    Avg QP:11.23  size: 50906\n",
      "[libx264 @ 0x14f005b30] frame B:34    Avg QP:18.25  size: 27980\n",
      "[libx264 @ 0x14f005b30] consecutive B-frames: 32.5% 27.5% 15.0% 25.0%\n",
      "[libx264 @ 0x14f005b30] mb I  I16..4: 77.4% 18.6%  4.0%\n",
      "[libx264 @ 0x14f005b30] mb P  I16..4:  0.7%  0.1%  0.5%  P16..4:  2.3%  0.9%  0.9%  0.0%  0.0%    skip:94.6%\n",
      "[libx264 @ 0x14f005b30] mb B  I16..4:  0.1%  0.1%  0.2%  B16..8:  2.9%  1.0%  0.6%  direct: 0.2%  skip:94.8%  L0:50.9% L1:42.4% BI: 6.7%\n",
      "[libx264 @ 0x14f005b30] 8x8 transform intra:15.7% inter:7.2%\n",
      "[libx264 @ 0x14f005b30] coded y,uvDC,uvAC intra: 12.9% 12.0% 11.6% inter: 1.0% 1.8% 1.7%\n",
      "[libx264 @ 0x14f005b30] i16 v,h,dc,p: 89% 10%  1%  0%\n",
      "[libx264 @ 0x14f005b30] i8 v,h,dc,ddl,ddr,vr,hd,vl,hu: 35%  3% 61%  0%  0%  0%  0%  0%  0%\n",
      "[libx264 @ 0x14f005b30] i4 v,h,dc,ddl,ddr,vr,hd,vl,hu: 23% 19% 32%  4%  7%  3%  6%  3%  4%\n",
      "[libx264 @ 0x14f005b30] i8c dc,h,v,p: 86%  4% 10%  0%\n",
      "[libx264 @ 0x14f005b30] Weighted P-Frames: Y:0.0% UV:0.0%\n",
      "[libx264 @ 0x14f005b30] ref P L0: 64.3%  6.3% 18.9% 10.4%\n",
      "[libx264 @ 0x14f005b30] ref B L0: 76.6% 19.8%  3.6%\n",
      "[libx264 @ 0x14f005b30] ref B L1: 96.8%  3.2%\n",
      "[libx264 @ 0x14f005b30] kb/s:1695.72\n",
      "ffmpeg version 5.1.2 Copyright (c) 2000-2022 the FFmpeg developers\n",
      "  built with Apple clang version 14.0.0 (clang-1400.0.29.202)\n",
      "  configuration: --prefix=/opt/homebrew/Cellar/ffmpeg/5.1.2_1 --enable-shared --enable-pthreads --enable-version3 --cc=clang --host-cflags= --host-ldflags= --enable-ffplay --enable-gnutls --enable-gpl --enable-libaom --enable-libbluray --enable-libdav1d --enable-libmp3lame --enable-libopus --enable-librav1e --enable-librist --enable-librubberband --enable-libsnappy --enable-libsrt --enable-libtesseract --enable-libtheora --enable-libvidstab --enable-libvmaf --enable-libvorbis --enable-libvpx --enable-libwebp --enable-libx264 --enable-libx265 --enable-libxml2 --enable-libxvid --enable-lzma --enable-libfontconfig --enable-libfreetype --enable-frei0r --enable-libass --enable-libopencore-amrnb --enable-libopencore-amrwb --enable-libopenjpeg --enable-libspeex --enable-libsoxr --enable-libzmq --enable-libzimg --disable-libjack --disable-indev=jack --enable-videotoolbox --enable-neon\n",
      "  libavutil      57. 28.100 / 57. 28.100\n",
      "  libavcodec     59. 37.100 / 59. 37.100\n",
      "  libavformat    59. 27.100 / 59. 27.100\n",
      "  libavdevice    59.  7.100 / 59.  7.100\n",
      "  libavfilter     8. 44.100 /  8. 44.100\n",
      "  libswscale      6.  7.100 /  6.  7.100\n",
      "  libswresample   4.  7.100 /  4.  7.100\n",
      "  libpostproc    56.  6.100 / 56.  6.100\n",
      "Input #0, image2, from 'P_%03d.png':\n",
      "  Duration: 00:00:03.20, start: 0.000000, bitrate: N/A\n",
      "  Stream #0:0: Video: png, rgba(pc), 4000x2400 [SAR 3937:3937 DAR 5:3], 25 fps, 25 tbr, 25 tbn\n",
      "Stream mapping:\n",
      "  Stream #0:0 -> #0:0 (png (native) -> h264 (libx264))\n",
      "Press [q] to stop, [?] for help\n",
      "[libx264 @ 0x109e04f70] using SAR=1/1\n",
      "[libx264 @ 0x109e04f70] using cpu capabilities: ARMv8 NEON\n",
      "[libx264 @ 0x109e04f70] profile High, level 6.0, 4:2:0, 8-bit\n",
      "[libx264 @ 0x109e04f70] 264 - core 164 r3095 baee400 - H.264/MPEG-4 AVC codec - Copyleft 2003-2022 - http://www.videolan.org/x264.html - options: cabac=1 ref=3 deblock=1:0:0 analyse=0x3:0x113 me=hex subme=7 psy=1 psy_rd=1.00:0.00 mixed_ref=1 me_range=16 chroma_me=1 trellis=1 8x8dct=1 cqm=0 deadzone=21,11 fast_pskip=1 chroma_qp_offset=-2 threads=15 lookahead_threads=2 sliced_threads=0 nr=0 decimate=1 interlaced=0 bluray_compat=0 constrained_intra=0 bframes=3 b_pyramid=2 b_adapt=1 b_bias=0 direct=1 weightb=1 open_gop=0 weightp=2 keyint=250 keyint_min=5 scenecut=40 intra_refresh=0 rc_lookahead=40 rc=crf mbtree=1 crf=20.0 qcomp=0.60 qpmin=0 qpmax=69 qpstep=4 ip_ratio=1.40 aq=1:1.00\n",
      "Output #0, mp4, to 'result.mp4':\n",
      "  Metadata:\n",
      "    encoder         : Lavf59.27.100\n",
      "  Stream #0:0: Video: h264 (avc1 / 0x31637661), yuv420p(tv, progressive), 4000x2400 [SAR 1:1 DAR 5:3], q=2-31, 5 fps, 10240 tbn\n",
      "    Metadata:\n",
      "      encoder         : Lavc59.37.100 libx264\n",
      "    Side data:\n",
      "      cpb: bitrate max/min/avg: 0/0/0 buffer size: 0 vbv_delay: N/A\n",
      "frame=   80 fps= 27 q=-1.0 Lsize=    2841kB time=00:00:15.40 bitrate=1511.4kbits/s speed= 5.2x    \n",
      "video:2840kB audio:0kB subtitle:0kB other streams:0kB global headers:0kB muxing overhead: 0.057844%\n",
      "[libx264 @ 0x109e04f70] frame I:1     Avg QP: 5.70  size:149831\n",
      "[libx264 @ 0x109e04f70] frame P:48    Avg QP:11.61  size: 41427\n",
      "[libx264 @ 0x109e04f70] frame B:31    Avg QP:17.96  size: 24801\n",
      "[libx264 @ 0x109e04f70] consecutive B-frames: 38.8% 25.0% 11.2% 25.0%\n",
      "[libx264 @ 0x109e04f70] mb I  I16..4: 75.0% 21.0%  4.0%\n",
      "[libx264 @ 0x109e04f70] mb P  I16..4:  0.9%  0.1%  0.5%  P16..4:  2.3%  0.9%  0.8%  0.0%  0.0%    skip:94.5%\n",
      "[libx264 @ 0x109e04f70] mb B  I16..4:  0.1%  0.1%  0.2%  B16..8:  3.0%  1.0%  0.5%  direct: 0.3%  skip:94.8%  L0:51.7% L1:42.4% BI: 5.9%\n",
      "[libx264 @ 0x109e04f70] 8x8 transform intra:16.3% inter:10.8%\n",
      "[libx264 @ 0x109e04f70] coded y,uvDC,uvAC intra: 10.6% 12.2% 11.8% inter: 0.8% 1.9% 1.8%\n",
      "[libx264 @ 0x109e04f70] i16 v,h,dc,p: 89% 10%  1%  0%\n",
      "[libx264 @ 0x109e04f70] i8 v,h,dc,ddl,ddr,vr,hd,vl,hu: 43%  3% 54%  0%  0%  0%  0%  0%  0%\n",
      "[libx264 @ 0x109e04f70] i4 v,h,dc,ddl,ddr,vr,hd,vl,hu: 24% 21% 35%  2%  5%  3%  5%  3%  2%\n",
      "[libx264 @ 0x109e04f70] i8c dc,h,v,p: 82%  4% 14%  0%\n",
      "[libx264 @ 0x109e04f70] Weighted P-Frames: Y:0.0% UV:0.0%\n",
      "[libx264 @ 0x109e04f70] ref P L0: 64.4%  2.7% 21.7% 11.1%\n",
      "[libx264 @ 0x109e04f70] ref B L0: 77.6% 20.0%  2.5%\n",
      "[libx264 @ 0x109e04f70] ref B L1: 96.7%  3.3%\n",
      "[libx264 @ 0x109e04f70] kb/s:1453.56\n"
     ]
    }
   ],
   "source": [
    "sigmas = [1., .1]\n",
    "nuggets = [.4, .01]\n",
    "for sigma in sigmas: \n",
    "    for nugget in nuggets: \n",
    "        for simulator in Simulators:  \n",
    "            string = \"/sigma_{:02d}/\".format(int(10*sigma)) + \"nugget_{:03d}/\".format(int(100*nugget)) + simulator + \"/\"\n",
    "            mppath = figpath + string\n",
    "            os.chdir(mppath)\n",
    "#             print(os.getcwd())\n",
    "            os.system(\"ffmpeg -r 5 -i P_%03d.png -vcodec libx264 -crf 20 -pix_fmt yuv420p result.mp4\")\n",
    "#             print(os.listdir(mppath))\n",
    "#             break\n",
    "#         break    \n",
    "#     break\n",
    "\n",
    "            "
   ]
  },
  {
   "cell_type": "code",
   "execution_count": 11,
   "id": "55dc56fb",
   "metadata": {},
   "outputs": [
    {
     "data": {
      "text/plain": [
       "<function posix.chdir(path)>"
      ]
     },
     "execution_count": 11,
     "metadata": {},
     "output_type": "execute_result"
    }
   ],
   "source": [
    "os.chdir"
   ]
  },
  {
   "cell_type": "code",
   "execution_count": null,
   "id": "48bb9094",
   "metadata": {},
   "outputs": [],
   "source": []
  }
 ],
 "metadata": {
  "kernelspec": {
   "display_name": "OASIS",
   "language": "python",
   "name": "oasis"
  },
  "language_info": {
   "codemirror_mode": {
    "name": "ipython",
    "version": 3
   },
   "file_extension": ".py",
   "mimetype": "text/x-python",
   "name": "python",
   "nbconvert_exporter": "python",
   "pygments_lexer": "ipython3",
   "version": "3.9.15"
  }
 },
 "nbformat": 4,
 "nbformat_minor": 5
}
